<svg id="Layer_1" data-name="Layer 1" xmlns="http://www.w3.org/2000/svg" viewBox="0 0 133 107"><defs><style>.cls-1{fill:#648c99;}</style></defs><title>leaf</title><path class="cls-1" d="M115.55,27.86s-6.72,8.93-19.24,4.89C96.31,32.75,101.7,22,115.55,27.86Z"/><path class="cls-1" d="M90.19,73.9s-10.66,3.37-18.5-7.19C71.68,66.71,82.29,61.1,90.19,73.9Z"/><path class="cls-1" d="M91.75,38.51s-10.4-4.11-9.81-17.25C81.93,21.26,93.7,23.6,91.75,38.51Z"/><path class="cls-1" d="M79.39,57.34s-11-1.93-13.09-14.92C66.3,42.42,78.3,42.35,79.39,57.34Z"/><path class="cls-1" d="M98.6,6.82s6.48,9.11-1.16,19.82C97.44,26.63,88.85,18.26,98.6,6.82Z"/><path class="cls-1" d="M49.6,58.82s6.48,9.11-1.16,19.82C48.44,78.63,39.85,70.26,49.6,58.82Z"/><path class="cls-1" d="M99.42,21.14a58.74,58.74,0,0,1-1.79,7q-1.08,3.43-2.48,6.74A79.12,79.12,0,0,1,88.4,47.52a78.33,78.33,0,0,1-8.92,11.29,75.51,75.51,0,0,1-10.8,9.52,74.26,74.26,0,0,1-12.36,7.42,65.91,65.91,0,0,1-13.61,4.81A49.88,49.88,0,0,1,28.3,81.89a37.2,37.2,0,0,1-14-3.48l.4-.92a41.09,41.09,0,0,0,13.68,2.62,54,54,0,0,0,13.86-1.56A71.63,71.63,0,0,0,67.5,66.71c1-.68,1.91-1.36,2.8-2.12s1.84-1.46,2.71-2.24c1.73-1.59,3.49-3.13,5.1-4.85A76.55,76.55,0,0,0,87,46.59,78,78,0,0,0,98.44,20.95Z"/></svg>