<svg id="Layer_1" data-name="Layer 1" xmlns="http://www.w3.org/2000/svg" viewBox="0 0 826 135"><defs><style>.cls-1{fill:#648c99;}.cls-2,.cls-3,.cls-4{fill:none;stroke:#648c99;stroke-miterlimit:10;stroke-width:2px;}.cls-3{stroke-dasharray:11.76 11.76;}.cls-4{stroke-dasharray:12.41 12.41;}</style></defs><title>leaves</title><path class="cls-1" d="M447.55,44.86s-6.72,8.93-19.24,4.89C428.31,49.75,433.7,39,447.55,44.86Z"/><path class="cls-1" d="M422.19,90.9s-10.66,3.37-18.5-7.19C403.68,83.71,414.29,78.1,422.19,90.9Z"/><path class="cls-1" d="M423.75,55.51s-10.4-4.11-9.81-17.25C413.93,38.26,425.7,40.6,423.75,55.51Z"/><path class="cls-1" d="M411.39,74.34s-11-1.93-13.09-14.92C398.3,59.42,410.3,59.35,411.39,74.34Z"/><path class="cls-1" d="M430.6,23.82s6.48,9.11-1.16,19.82C429.44,43.63,420.85,35.26,430.6,23.82Z"/><path class="cls-1" d="M381.6,75.82s6.48,9.11-1.16,19.82C380.44,95.63,371.85,87.26,381.6,75.82Z"/><path class="cls-1" d="M431.42,38.14a58.74,58.74,0,0,1-1.79,7q-1.08,3.43-2.48,6.74a79.12,79.12,0,0,1-6.75,12.68,78.33,78.33,0,0,1-8.92,11.29,75.51,75.51,0,0,1-10.8,9.52,74.26,74.26,0,0,1-12.36,7.42,65.91,65.91,0,0,1-13.61,4.81,49.88,49.88,0,0,1-14.41,1.32,37.2,37.2,0,0,1-14-3.48l.4-.92a41.09,41.09,0,0,0,13.68,2.62,54,54,0,0,0,13.86-1.56A71.63,71.63,0,0,0,399.5,83.71c1-.68,1.91-1.36,2.8-2.12s1.84-1.46,2.71-2.24c1.73-1.59,3.49-3.13,5.1-4.85A76.55,76.55,0,0,0,419,63.59a78,78,0,0,0,11.43-25.65Z"/><line class="cls-2" y1="64" x2="6" y2="64"/><line class="cls-3" x1="17.76" y1="64" x2="341.12" y2="64"/><line class="cls-2" x1="347" y1="64" x2="353" y2="64"/><line class="cls-2" x1="479" y1="64" x2="485" y2="64"/><line class="cls-4" x1="497.41" y1="64" x2="813.8" y2="64"/><line class="cls-2" x1="820" y1="64" x2="826" y2="64"/></svg>