<svg id="Layer_1" data-name="Layer 1" xmlns="http://www.w3.org/2000/svg" viewBox="0 0 360 97"><defs><style>.cls-1{fill:#3b5663;}.cls-2{fill:#648c99;}</style></defs><title>Artboard 2</title><path class="cls-1" d="M77.86,47.66a1.75,1.75,0,0,1,.34,1,1.84,1.84,0,0,1-.39,1.26,5,5,0,0,0-.53,1A8.1,8.1,0,0,0,76.9,52a9.14,9.14,0,0,1-.34,1.48q-.22.7-.45,1.48-.62,1.79-1.23,3.53T73.66,62q-.45,1.23-1,2.38t-1,2.38a20.5,20.5,0,0,0-.7,2,4.27,4.27,0,0,1-1.09,1.82,8.23,8.23,0,0,1-2.66,1.74,8,8,0,0,1-3.11.67,3.59,3.59,0,0,1-1.93-.5,7.52,7.52,0,0,1-1.54-1.29,4.56,4.56,0,0,1-1-1.62,8.81,8.81,0,0,1-.42-1.88,17.13,17.13,0,0,1-.11-2q0-1-.06-1.93-.11-2.35,0-4.59t.28-4.54q.11-.78.17-1.6l.11-1.65a35.13,35.13,0,0,1,.53-3.81q.36-1.85.76-3.75l1-4.54q.17-.84.36-1.71t.31-1.71q.34-2,.5-3.75a3.45,3.45,0,0,0,0-1,5.29,5.29,0,0,1-.08-.92,1.08,1.08,0,0,0-.34-.06,11.53,11.53,0,0,0-4.54,3.08,5.07,5.07,0,0,1-.9.9,6.89,6.89,0,0,0-1.12,1.46l-.9,1.57q-.17.34-.36.67l-.36.62-1.12,2a18.74,18.74,0,0,0-1,2q-.5,1.18-1.06,2.35a9.46,9.46,0,0,0-.78,2.46.25.25,0,0,1,0,.11.39.39,0,0,0,0,.17,11.64,11.64,0,0,0-1,3.14q-.31,1.68-.7,3.25a19.36,19.36,0,0,1-.67,2.07q-.39,1-.73,2.07t-.7,2.35a23.21,23.21,0,0,1-.76,2.35,7,7,0,0,1-.78,1.37A5.08,5.08,0,0,1,44,65.35a.82.82,0,0,1-.73.25,1.32,1.32,0,0,1-.62-.36,3.48,3.48,0,0,1-.5-.64c-.15-.24-.28-.48-.39-.7a5.08,5.08,0,0,1-.39-1.32q-.11-.7-.17-1.37V57.74c0-.45,0-.9,0-1.34s0-.9,0-1.34q.11-1.46.14-3t.08-3q.11-1.4.17-2.8t.11-2.86v-.9q-.28.28-.48.5a3.49,3.49,0,0,0-.36.5q-.62,1.12-1.23,2.16t-1.23,2.16a2.66,2.66,0,0,0-.34.7,3.82,3.82,0,0,1-.34.76q-.45,1-.81,1.9t-.64,1.9a8,8,0,0,1-.39,1.12,4.87,4.87,0,0,0-.34,1.12,13.72,13.72,0,0,1-.45,1.6,6.3,6.3,0,0,0-.34,1.65,13.32,13.32,0,0,1-.56,2.74q-.45,1.46-.9,2.69a21.39,21.39,0,0,0-.87,3.16q-.31,1.6-.64,3.22l-.11.78L31.6,72a1,1,0,0,1-.28.64,1.63,1.63,0,0,1-.67.31,3.09,3.09,0,0,1-.92.08l-1-.08a1.68,1.68,0,0,1-1.46-1.23,7.13,7.13,0,0,1-.36-1,6.27,6.27,0,0,1-.2-1.06q-.11-1.74-.17-3.47a28.06,28.06,0,0,1,.11-3.53,4.11,4.11,0,0,0,.06-.67v-.73q-.06-1.4,0-2.8t.22-2.8q.17-1.74.25-3.44t.2-3.44q.11-2,.2-3.95t.2-4Q28,38.87,28,37a.8.8,0,0,0,0-.36,2.91,2.91,0,0,1,0-.42.91.91,0,0,1-.28.06.5.5,0,0,0-.22.06q-.62.22-1.18.48a4.2,4.2,0,0,0-1.06.7,4,4,0,0,1-.62.5,8.05,8.05,0,0,0-.67.5,12.85,12.85,0,0,0-1.74,1.6l-1.57,1.71a5.85,5.85,0,0,0-1.12,1.51,1,1,0,0,1-.78.5l-.48.08-.42.08q-.56-.56-.53-.76a2.08,2.08,0,0,1,.31-.64q.78-1.29,1.62-2.44a13.57,13.57,0,0,1,1.9-2.1l1.51-1.32q.73-.64,1.51-1.26a7,7,0,0,1,1-.73q.56-.34,1.12-.62a7,7,0,0,1,1.4-.34,7.63,7.63,0,0,1,1.09-.14l1.09-.08a4.14,4.14,0,0,1,1.46.14,13,13,0,0,1,1.34.48,5,5,0,0,1,.84.53,2.68,2.68,0,0,1,.67.81,2.62,2.62,0,0,1,.36.9c.06.3.12.6.2.9q.11,1,.22,1.88a15.68,15.68,0,0,1,.11,1.88q0,1,0,1.82a5.33,5.33,0,0,1-.25,1.76.51.51,0,0,0,0,.34.53.53,0,0,1,0,.34V48a.54.54,0,0,1-.17.39,1.28,1.28,0,0,0-.17.67.37.37,0,0,1,0,.28l-.11.34q-.17.34.22.5a.49.49,0,0,0,.14-.25.48.48,0,0,1,.14-.25q.62-1.4,1.26-2.8t1.37-2.8a19.51,19.51,0,0,1,3-4.42q.34-.39.67-.73t.62-.67a.26.26,0,0,1,.28-.17l1.32-.31q.64-.14,1.37-.25a1.89,1.89,0,0,1,1.74.56,2.21,2.21,0,0,0,.56.34,1.25,1.25,0,0,1,.5.39,4.83,4.83,0,0,1,1,1.32,3,3,0,0,1,.22,1.65,5.31,5.31,0,0,0-.06.76,5.45,5.45,0,0,1-.06.76.89.89,0,0,0,0,.22.93.93,0,0,1,0,.22c.19-.07.29-.17.31-.28a.5.5,0,0,1,.14-.28l.56-1.34a13.62,13.62,0,0,1,.62-1.29,12,12,0,0,1,.64-1.32l.7-1.26q.78-1.18,1.48-2.38t1.48-2.32a16.27,16.27,0,0,1,2.07-2.41A11.94,11.94,0,0,1,59.26,29a8.17,8.17,0,0,1,2.8-.78,16.64,16.64,0,0,1,4.09-.17,2.33,2.33,0,0,1,1.34.67A2.26,2.26,0,0,1,68.17,30a13.56,13.56,0,0,1,.42,2,8.15,8.15,0,0,1,0,2,5.75,5.75,0,0,0,.06,1.4,5.44,5.44,0,0,1,.06,1.34q0,1.12,0,2.18a18,18,0,0,1-.2,2.18q-.34,2.18-.67,4.42T67.38,50a23.25,23.25,0,0,1-.64,4.4,26.55,26.55,0,0,0-.7,4.4q-.11,1.85-.08,3.7t0,3.64a3.35,3.35,0,0,1-.17,1.06,1.21,1.21,0,0,0,.11,1c.11.22.2.43.28.62a.74.74,0,0,0,.56.39,3.41,3.41,0,0,0,1,.08,1.23,1.23,0,0,0,.84-.48l.2-.31.2-.31q.39-1.12.78-2.16t.84-2.1q.45-1.18.84-2.32t.84-2.27q.45-1.29,1-2.55t1-2.55q.5-1.23,1-2.46t1.09-2.46a4.07,4.07,0,0,0,.17-.5q.05-.22.11-.5.11-.5.39-.56A5.14,5.14,0,0,1,77.86,47.66Z"/><path class="cls-1" d="M90.34,47.77a1,1,0,0,1,.34.67,2.12,2.12,0,0,0-.14.48,2.11,2.11,0,0,1-.08.36,3.33,3.33,0,0,0-.39.84,5,5,0,0,1-.34.84,4,4,0,0,1-.28.56.88.88,0,0,0-.31.39l-.2.5a.49.49,0,0,0-.14.25.89.89,0,0,1-.14.31,4,4,0,0,1-.22.48,1.55,1.55,0,0,0-.17.48l-.14.28-.14.28q-.28.62-.53,1.23A9.49,9.49,0,0,0,87,57l-.11.06q-.22.34-.39.64a4.07,4.07,0,0,1-.45.64,2.57,2.57,0,0,1-.81.87q-.53.36-1,.76a3,3,0,0,1-.62.48,3.5,3.5,0,0,1-.67.31.32.32,0,0,0-.22.11A3.74,3.74,0,0,1,82,61a2.22,2.22,0,0,0-.64.14,1.33,1.33,0,0,1-.9-.06c-.3-.11-.59-.2-.87-.28a5.81,5.81,0,0,1-.81-.28,3.1,3.1,0,0,1-1-.7,4.12,4.12,0,0,1-.67-1,4.44,4.44,0,0,1-.36-1.2q-.08-.59-.2-1.2a5.5,5.5,0,0,1-.08-1.23q0-.62,0-1.23a11.31,11.31,0,0,1,0-1.37q0-.7,0-1.43a39.32,39.32,0,0,1,.17-4.65,8.84,8.84,0,0,0,.14-1.18,9.4,9.4,0,0,1,.14-1.18Q77,43.57,77,43t.2-1.15l.34-1q.17-.47.34-1c0-.15.17-.22.39-.22a3.89,3.89,0,0,0,.64.06,1.13,1.13,0,0,1,.59.17,1.16,1.16,0,0,1,.56.45,2.41,2.41,0,0,0,.22.45,2.58,2.58,0,0,1,.22.45l.11.25a.71.71,0,0,1,.06.25,5.46,5.46,0,0,1,.06.76,2.72,2.72,0,0,0,.11.76,6.75,6.75,0,0,1,.06,1.48q-.06.7-.06,1.43a2.5,2.5,0,0,1-.06,1.18.68.68,0,0,0,0,.34,2.11,2.11,0,0,1,0,.34,6.58,6.58,0,0,1,.06.78,3.29,3.29,0,0,1-.11.78,4.48,4.48,0,0,0-.11,1q0,.48-.06,1.09v.73l-.11.11a2.36,2.36,0,0,1,0,1c-.06.3-.1.6-.14.9a.26.26,0,0,1,0,.2.43.43,0,0,0,0,.14,1.45,1.45,0,0,1,.11.53v.48c0,.19-.07.36-.08.53a1.7,1.7,0,0,0,0,.53,6.08,6.08,0,0,1,.11,1.62,2.81,2.81,0,0,0,.39,1.23c0,.08.13.11.28.11a1.94,1.94,0,0,0,.56-.06,1.65,1.65,0,0,0,.59-.34l.53-.45.34-.34a1.52,1.52,0,0,0,.28-.39q.67-.78,1.29-1.6a14.91,14.91,0,0,0,1.12-1.71,3.82,3.82,0,0,1,.39-.78,3.84,3.84,0,0,0,.39-.78,5.89,5.89,0,0,0,.48-.78q.2-.39.42-.9l.53-1.15a10.85,10.85,0,0,0,.48-1.2.93.93,0,0,1,.17-.36,1.72,1.72,0,0,0,.22-.42A1.8,1.8,0,0,1,90.34,47.77Zm-13-13.66.31-.11a1,1,0,0,1,.36-.06c.11-.07.19-.07.22,0a.88.88,0,0,0,.39,0l.45,0a1.38,1.38,0,0,1,1.51.62c-.08.34-.14.67-.2,1a6.67,6.67,0,0,1-.25,1,5.61,5.61,0,0,0-.5.56.16.16,0,0,0-.11.06h-.62a.85.85,0,0,1-.62-.28,2.48,2.48,0,0,1-.56-.73A1.6,1.6,0,0,1,77.35,35a.92.92,0,0,0,0-.45A.9.9,0,0,1,77.35,34.11Z"/><path class="cls-1" d="M88.33,54.1a3.34,3.34,0,0,1-.06-1l.11-.92a1.63,1.63,0,0,0,.11-.62,3.21,3.21,0,0,1,.06-.62,10.36,10.36,0,0,1,.17-1.79,11.47,11.47,0,0,1,.39-2,11.26,11.26,0,0,0,.39-2,.47.47,0,0,0,.06-.14.52.52,0,0,1,.06-.14q.11-.45.25-1a5.23,5.23,0,0,1,.36-1l.45-1q.22-.5.45-1t.42-.78l.42-.73a1,1,0,0,0,.11-.28,3.61,3.61,0,0,1,.62-.76,5.38,5.38,0,0,1,.78-.59l1.06-.5L95.61,37a3.05,3.05,0,0,1,.59-.17,4.63,4.63,0,0,0,.64-.17,5.61,5.61,0,0,1,.62-.08,5.4,5.4,0,0,0,.62-.08,3,3,0,0,1,.67-.06,4.2,4.2,0,0,1,1.68.11,9.2,9.2,0,0,1,1.57.62l.25.14a1.36,1.36,0,0,1,.25.2.55.55,0,0,1,.28.5l.11.34.11.34q.11.28.2.56a1.35,1.35,0,0,1,0,.62c-.08.08-.08.17,0,.28a2.25,2.25,0,0,1-.14.81q-.14.36-.31.7a1.21,1.21,0,0,1-.7.48,1.17,1.17,0,0,1-.76,0c-.15-.07-.21-.17-.17-.28a2.9,2.9,0,0,0,.06-.56,1.49,1.49,0,0,1,.11-.56,1.3,1.3,0,0,0,.06-.64c0-.2-.08-.42-.11-.64a.81.81,0,0,0-.28-.56l-.34-.25a1.7,1.7,0,0,0-.45-.25,3.71,3.71,0,0,1-.48-.22,4.06,4.06,0,0,0-.48-.22.5.5,0,0,0-.56,0l-.42.31-.42.31a1.11,1.11,0,0,0-.34.39,5.41,5.41,0,0,1-1,1.74,3.45,3.45,0,0,0-.78,1.46,4.62,4.62,0,0,1-.28.81,4.6,4.6,0,0,0-.28.81.9.9,0,0,0-.11.39q-.11.56-.25,1.09t-.31,1.09c-.08.22-.15.46-.22.7a4.89,4.89,0,0,0-.17.76.94.94,0,0,1-.06.28,2.22,2.22,0,0,1-.11.28A7.93,7.93,0,0,0,93.54,50q-.06.45-.14.87t-.2.87a.32.32,0,0,0-.06.22q-.06.62-.08,1.18c0,.37,0,.75,0,1.12a1.7,1.7,0,0,0,.06.73v.28a1.17,1.17,0,0,0,0,.67,2.78,2.78,0,0,1,.08.67v.62a2,2,0,0,0,.11,1.18.89.89,0,0,1,.14.36,1.34,1.34,0,0,0,.14.42l.11.45a3.77,3.77,0,0,0,.17.5,2.32,2.32,0,0,0,.5.73,1,1,0,0,0,1.06.22,1.78,1.78,0,0,1,.5-.11,6,6,0,0,0,1.4-.39,11.12,11.12,0,0,0,1.34-.67,2.58,2.58,0,0,0,.5-.39,6,6,0,0,0,.45-.5q.34-.39.67-.73l.67-.67.9-.92.9-.92L104,54.38a15.35,15.35,0,0,0,1.18-1.46s.06-.06.06-.08,0,0,.06-.08a7.06,7.06,0,0,0,1.09-1.26l.92-1.37a.71.71,0,0,0,.17-.28,1.37,1.37,0,0,1,.17-.34,3.15,3.15,0,0,1,.25-.5,5.34,5.34,0,0,1,.36-.5,1,1,0,0,1,1.12-.5.42.42,0,0,1,.34.5,1.7,1.7,0,0,1-.45.9l-.42.53a5.9,5.9,0,0,1-.48.53q-.22.28-.34.39c-.11.11-.22.22-.31.34a1,1,0,0,0-.2.39.46.46,0,0,1-.17.28,2.24,2.24,0,0,1-.28.34,2.21,2.21,0,0,0-.28.34.44.44,0,0,1-.08.42,2,2,0,0,0-.25.31,2.16,2.16,0,0,1-.28.5q-.17.22-.34.5a.87.87,0,0,1-.17.22,2,2,0,0,0-.56.56,4,4,0,0,1-.5.62l-.06.06a3.78,3.78,0,0,1-1,1.12,8,8,0,0,0-1.09,1l-.5.67a11.53,11.53,0,0,1-1,1.15,5.23,5.23,0,0,1-1.18.92q-.79.5-1.6,1a8.72,8.72,0,0,1-1.76.73L95,62.69a12.62,12.62,0,0,1-1.51.31,2.37,2.37,0,0,1-.84-.11,3.82,3.82,0,0,0-.67-.28,5.28,5.28,0,0,1-1.51-1.06,4.21,4.21,0,0,0-.28-.39A3.39,3.39,0,0,1,89.34,60a13.17,13.17,0,0,1-.5-1.29,1.43,1.43,0,0,1-.14-.39,1.41,1.41,0,0,0-.14-.39,4.28,4.28,0,0,1-.17-1.23c0-.45-.06-.9-.06-1.34Z"/><path class="cls-1" d="M118.85,49.73a3.71,3.71,0,0,0-1,.56,2,2,0,0,0-.67.84,3.19,3.19,0,0,1-.31.73,1.55,1.55,0,0,1-.59.56.46.46,0,0,0-.17.28,6.08,6.08,0,0,1-.53,1,3.88,3.88,0,0,0-.48,1.09,1.06,1.06,0,0,1-.2.34,3.77,3.77,0,0,0-.25.34l-.42.76a1.8,1.8,0,0,0-.2.87,1,1,0,0,1-.11.28,6.89,6.89,0,0,0-.39,1.48q-.11.76-.17,1.54a3.37,3.37,0,0,1-.11.87q-.11.42-.22.87a1.87,1.87,0,0,0-.06,1.34,2.34,2.34,0,0,1-.06.84l-.42,1.15a7.2,7.2,0,0,0-.31,1.09q-.11.34-.25.64l-.31.64s0,.06-.08.08a.34.34,0,0,0-.14.08,1.18,1.18,0,0,1-.62-.17,1.74,1.74,0,0,0-.56-.22,3.25,3.25,0,0,0-.34.45.65.65,0,0,1-.45-.22.73.73,0,0,0-.78-.22.11.11,0,0,0-.08,0,.12.12,0,0,1-.08,0,.45.45,0,0,1-.56-.34.11.11,0,0,0,0-.08.12.12,0,0,1,0-.08,1.52,1.52,0,0,0-.08-.78,5.79,5.79,0,0,1-.25-.78,7.33,7.33,0,0,1-.17-1c0-.34-.07-.65-.11-1a9.18,9.18,0,0,1,0-1.23,5.43,5.43,0,0,0-.08-1.23v-.06q0-.9-.06-1.74L107,57.79a3.18,3.18,0,0,1,0-.84l.11-.78c0-.22,0-.44,0-.64s0-.42,0-.64V53.71a5.74,5.74,0,0,1,.11-1.12,16.08,16.08,0,0,0,0-1.9,11.79,11.79,0,0,1,.17-3,4.85,4.85,0,0,0,.14-.84,5,5,0,0,1,.14-.84q.11-.78.25-1.62t.25-1.62q.17-.78.28-1.6t.28-1.6a2.4,2.4,0,0,1,.17-.84q.17-.78.36-1.51t.42-1.46a.24.24,0,0,1,0-.11.25.25,0,0,0,0-.11l1.34-4.37q.28-.9.62-1.76l.67-1.71c.11-.3.23-.59.36-.87s.27-.57.42-.87a3.13,3.13,0,0,1,.31-.73,5,5,0,0,1,.42-.62l.34-.59a4,4,0,0,0,.28-.64l.45-.9a2.22,2.22,0,0,1,.67-.78,3.61,3.61,0,0,0,.78-1.12,3.76,3.76,0,0,1,1-1.18,6.55,6.55,0,0,1,2-1.06,10.85,10.85,0,0,1,2.24-.45,4,4,0,0,0,.5,0,4.11,4.11,0,0,1,.5,0,3.3,3.3,0,0,1,1,0q.5.08,1,.2a14.91,14.91,0,0,1,1.62.42,6.94,6.94,0,0,1,1.51.7,4.66,4.66,0,0,1,.81.64,7.71,7.71,0,0,1,.7.81,5.86,5.86,0,0,1,.73,1.68,1.22,1.22,0,0,1,.08.22,1,1,0,0,0,.08.22,2.68,2.68,0,0,1,.22,1,1.51,1.51,0,0,0,0,.31,1.62,1.62,0,0,1,0,.31,2.36,2.36,0,0,1,.06.84,9.32,9.32,0,0,0-.11,1.43,8.37,8.37,0,0,1-.11,1.37q-.11.79-.25,1.54T129.71,31a11.34,11.34,0,0,1-.92,2.27,16.62,16.62,0,0,1-1.34,2.1q-.76,1-1.54,2t-1.51,1.9q-.67.9-1.29,1.62a10.42,10.42,0,0,1-1.46,1.4q-.78.62-1.62,1.2t-1.62,1.2l-2.69,2.13a8.13,8.13,0,0,1-3.08,1.46c-.45.11-.7.22-.76.31a3,3,0,0,0-.2.76,5.3,5.3,0,0,0-.17,1.29,2.49,2.49,0,0,0,0,.64q0,.31,0,.59a1.46,1.46,0,0,1,0,.48,2.93,2.93,0,0,0,0,.42,2.71,2.71,0,0,0-.06.53,2.76,2.76,0,0,1-.06.53,5.53,5.53,0,0,0-.11,1.09v1.09q-.06.39-.08.76a3.39,3.39,0,0,0,0,.76.45.45,0,0,1,.06.17.42.42,0,0,0,.06.17,3.86,3.86,0,0,0,.22-.39,12.24,12.24,0,0,1,.81-1.74q.48-.84.92-1.74a5.05,5.05,0,0,1,.48-.78q.25-.34.53-.78c.11-.19.23-.37.36-.56s.27-.37.42-.56l.34-.36.34-.36a8.56,8.56,0,0,1,1-.84q.53-.39,1.09-.73a3.4,3.4,0,0,1,2.24-.45,1.09,1.09,0,0,1,.84.5,5,5,0,0,0,.45.67,1.62,1.62,0,0,1,.39.84q.34,1.46.76,2.74a9.19,9.19,0,0,1,.42,2.86,29.77,29.77,0,0,1-.53,5,19.36,19.36,0,0,0-.31,5,12.89,12.89,0,0,1,.14,1.43q0,.7.08,1.43a3.47,3.47,0,0,1,0,.48,2.91,2.91,0,0,0,0,.42,3.15,3.15,0,0,0,.62,1.79.59.59,0,0,0,.5.22,1.69,1.69,0,0,0,.7-.14,2.85,2.85,0,0,0,.59-.36,3.92,3.92,0,0,0,.78-.78q.28-.45.56-.84t.56-.84q.67-1.12,1.23-2.27t1.06-2.32A.51.51,0,0,0,129,64a1,1,0,0,1,.08-.28,1,1,0,0,0,.08-.28,1,1,0,0,1,.08-.28,10.15,10.15,0,0,0,.7-1.79,10.13,10.13,0,0,1,.7-1.79,5.39,5.39,0,0,0,.28-.84,4.07,4.07,0,0,1,.31-.84,8.75,8.75,0,0,0,.36-.84,16.12,16.12,0,0,0,.78-1.85,18.26,18.26,0,0,0,.56-1.9q.17-.78.36-1.54t.42-1.54a5.07,5.07,0,0,1,.28-.67l.34-.67a1.69,1.69,0,0,1,.28-.48,3.5,3.5,0,0,0,.34-.48,1,1,0,0,1,1-.45.85.85,0,0,1,.14.53,2.07,2.07,0,0,1-.14.53,3.22,3.22,0,0,1-.14.5l-.2.5a.77.77,0,0,0-.11.56.64.64,0,0,1-.06.45q-.11.45-.25.92t-.25,1c-.08.19-.14.36-.2.53s-.12.35-.2.53a22.91,22.91,0,0,0-1.4,5.15A16.68,16.68,0,0,1,132,62.58q-.81,1.88-1.76,3.67-.39.73-.76,1.54t-.81,1.6a11.75,11.75,0,0,1-1,1.46A4.84,4.84,0,0,1,126.41,72l-1,.56a3.36,3.36,0,0,1-1,.39l-.22.11-.22.11a2.49,2.49,0,0,1-.42.17,1,1,0,0,1-.48,0,.87.87,0,0,0-.22,0l-.22,0a2.53,2.53,0,0,1-1.93-.22,3.48,3.48,0,0,1-1.48-1.4,6.15,6.15,0,0,1-.48-.92,5.58,5.58,0,0,1-.31-1,16.32,16.32,0,0,1-.22-2.69,23,23,0,0,0-.17-2.74,14.91,14.91,0,0,1,0-1.6q0-.81,0-1.6a34.82,34.82,0,0,1,.48-4.26,35,35,0,0,0,.48-4.26q0-.62.06-1.23a6.92,6.92,0,0,0,0-1.23A.5.5,0,0,0,118.85,49.73Zm-6.78-2.41.45-.17,1-.67q.53-.34,1-.67l1.4-1.09,1.34-1q1-.78,1.79-1.6t1.62-1.71A2.19,2.19,0,0,1,121,40a2.29,2.29,0,0,0,.28-.34l1-1,1-1,.22-.25.22-.25a8.08,8.08,0,0,0,.7-.92q.31-.48.59-1a34.55,34.55,0,0,0,2.18-4.2c.07-.22.15-.44.22-.64l.22-.64q.05-.28.08-.53c0-.17,0-.35.08-.53a5.07,5.07,0,0,0,.14-.9q0-.45.08-.9v-.67a4.06,4.06,0,0,1,.06-.67,1.21,1.21,0,0,0,0-.73.66.66,0,0,1-.06-.45,3.09,3.09,0,0,0-.34-1.4.84.84,0,0,1-.11-.34,2.55,2.55,0,0,0-.56-1.23L126.8,21a3.67,3.67,0,0,1-.22-.48,1.33,1.33,0,0,0-.67-.84,1.43,1.43,0,0,0-.34-.17.69.69,0,0,1-.28-.17,1.66,1.66,0,0,0-1.4-.17,4.18,4.18,0,0,0-1,.34q-.45.22-.9.5l-.5.5-.34.45-.34.45-.22.34a.79.79,0,0,0-.11.45.38.38,0,0,1-.11.28,8.62,8.62,0,0,0-.56,1.09q-.22.53-.5,1.15l-.11.22a.61.61,0,0,0-.06.28.35.35,0,0,1-.06.2,1.68,1.68,0,0,0-.11.2,1.91,1.91,0,0,0-.28.67,5.18,5.18,0,0,1-.73,2,.85.85,0,0,0-.14.34.51.51,0,0,1-.14.28l-.34,1q-.17.53-.34,1a4.07,4.07,0,0,0-.34,1,7.18,7.18,0,0,1-.28,1,2.23,2.23,0,0,0-.25.64q-.08.36-.2.7l-.45,1.23-.45,1.23a4.8,4.8,0,0,0-.17.48c0,.13-.08.29-.11.48a6.47,6.47,0,0,1-.36,1.37,10.94,10.94,0,0,1-.59,1.26l-.22.56a3.1,3.1,0,0,0-.17.56c-.08.3-.14.59-.2.87s-.12.57-.2.87l-.11.42c0,.13-.08.29-.11.48a3.79,3.79,0,0,0-.14.76,1.46,1.46,0,0,1-.25.7.32.32,0,0,0-.06.22,1.45,1.45,0,0,1-.28,1A1.14,1.14,0,0,0,112.07,47.32Z"/><path class="cls-1" d="M141.3,54l-.22.2-.22.2a7.84,7.84,0,0,1-1.09.81,3,3,0,0,1-1.37.42,5.77,5.77,0,0,0-1,.2,5.63,5.63,0,0,1-1,.2,4.72,4.72,0,0,1-1.79-.22,2.9,2.9,0,0,1-1.46-1.18,3.8,3.8,0,0,1-.56-1.23,8,8,0,0,1-.11-3.75,4.85,4.85,0,0,0,.14-.84,5,5,0,0,1,.14-.84l.5-1.68q.17-.5.36-1a6.79,6.79,0,0,0,.31-1,9.35,9.35,0,0,1,2-3.64,9,9,0,0,0,.9-1.06,2.76,2.76,0,0,1,.81-.73,5.12,5.12,0,0,1,1-.45l1.34-.5a4.11,4.11,0,0,1,1.2-.25,9.07,9.07,0,0,0,1.2-.14,1.69,1.69,0,0,0,.5-.06,2.6,2.6,0,0,1,1-.14,6.31,6.31,0,0,1,1,.14,1.4,1.4,0,0,1,.7.31,4.43,4.43,0,0,1,.59.59,5.19,5.19,0,0,0,.36.53,2.23,2.23,0,0,1,.31.53,1.22,1.22,0,0,1-.22,1.62.77.77,0,0,1-.56.17q-.22.06-.34-.28a2.39,2.39,0,0,0-.5-1.15q-.39-.48-.84-1l-.17-.17a3.36,3.36,0,0,0-1.9-.11,6.1,6.1,0,0,0-1.46.5A2.77,2.77,0,0,0,139.68,40a11.74,11.74,0,0,0-1,2.27q-.39,1.2-.84,2.32-.22.56-.39,1.12T137,46.87a21.1,21.1,0,0,0-.7,2.63,6.26,6.26,0,0,0,.08,2.69,2,2,0,0,0,1.06,1.29,1.72,1.72,0,0,0,1.62.17A4.51,4.51,0,0,0,140.88,52q.81-1.23,1.32-2.13a3,3,0,0,0,.17-.62,4.35,4.35,0,0,1,.17-.67,4.27,4.27,0,0,0,.17-.7,2.88,2.88,0,0,1,.17-.64,6.79,6.79,0,0,1,.31-1q.2-.5.36-1c.11-.37.23-.73.36-1.06a6.46,6.46,0,0,0,.31-1.06q.28-.9,1-1a2.09,2.09,0,0,1,.53-.14l.53-.08a.71.71,0,0,1,.84.56l.17.34a1,1,0,0,1-.11.81.79.79,0,0,0,0,.81,1.11,1.11,0,0,1,0,.42,2.94,2.94,0,0,0,0,.42,8.91,8.91,0,0,1-.25,2q-.25,1.09-.42,2T146.23,51q-.06.78-.22,1.79a4.54,4.54,0,0,0-.17.64q-.06.31-.11.64-.11.62-.17,1.26t-.17,1.32c0,.19-.07.36-.08.53a4.73,4.73,0,0,0,0,.53c0,.11,0,.33-.06.64a5.35,5.35,0,0,0,0,1,1.08,1.08,0,0,0,.28.73q.25.25.87,0a5.5,5.5,0,0,0,1-.81,10.16,10.16,0,0,0,.92-.92q.45-.62,1.06-1.54a12.52,12.52,0,0,0,1-1.65q.67-1.4,1.54-3.33t1.54-3.33a1.05,1.05,0,0,0,.11-.48c0-.17.09-.25.28-.25a1.07,1.07,0,0,1,.34-.06,1.64,1.64,0,0,0,.39-.06q.39,0,.34.34c0,.19-.07.36-.08.53a1.43,1.43,0,0,1-.14.48c-.11.19-.26.48-.45.87s-.37.8-.56,1.23l-.53,1.23-.36.87q-.56,1.29-1.23,2.72A23.75,23.75,0,0,1,150,58.63,13.83,13.83,0,0,1,148,61a6.87,6.87,0,0,1-2.49,1.57,4,4,0,0,1-1.68.11,2.73,2.73,0,0,1-1.57-.62,1.36,1.36,0,0,1-.5-.62,4.46,4.46,0,0,1-.67-1.88,11.66,11.66,0,0,1-.06-2l.11-1.57q.05-.78.17-1.57Z"/><path class="cls-1" d="M171.09,47.66a2,2,0,0,0,.34.39,1.23,1.23,0,0,1-.22.45,8,8,0,0,0-1.06,1.85.32.32,0,0,0-.11.22,1.38,1.38,0,0,1-.28.87,2.19,2.19,0,0,0-.39.81,1.78,1.78,0,0,0-.42.67,2.38,2.38,0,0,1-.42.73,15.65,15.65,0,0,0-1.12,1.62q-.5.84-1,1.68a14.22,14.22,0,0,1-1.18,1.6,8.7,8.7,0,0,1-1.48,1.37l-1.34,1a12.85,12.85,0,0,1-1.37,1,7.1,7.1,0,0,1-1.48.67,4.52,4.52,0,0,1-1.68.2,5.68,5.68,0,0,1-1.23-.25l-1.23-.36-.22-.11c-.34-.22-.65-.46-1-.7a5.3,5.3,0,0,1-.84-.87A6.84,6.84,0,0,1,152.22,57q-.05-1.12,0-2.16t.14-2.16q.11-.67.17-1.37l.11-1.37a1.58,1.58,0,0,1,0-.31,3,3,0,0,1,.08-.31q.17-.67.31-1.34t.25-1.4a15.35,15.35,0,0,1,.53-1.71q.31-.81.64-1.65l.11-.22.11-.22a2.17,2.17,0,0,0,.42-.56q.14-.28.25-.56a.11.11,0,0,1,0-.08.12.12,0,0,0,0-.08,2.9,2.9,0,0,1,.56-1.09q.39-.48.84-.92a1.51,1.51,0,0,1,.39-.28,12.82,12.82,0,0,1,1.46-.67,7,7,0,0,1,1.51-.39l.9-.2a2.08,2.08,0,0,1,.9,0,5,5,0,0,1,1,.11.39.39,0,0,1,.17,0,.38.38,0,0,0,.17,0,1.9,1.9,0,0,1,1.82,1.12,4.8,4.8,0,0,1,.34,2.46,8.76,8.76,0,0,1-.73,2.72,4.79,4.79,0,0,1-1.32,1.88l-.45.25a1.46,1.46,0,0,0-.39.36.33.33,0,0,1-.28.17l-.42.22a3.77,3.77,0,0,1-.48.22l-1,.34q-.48.17-.92.28a2.34,2.34,0,0,0-.9.22,2.15,2.15,0,0,0-.28.73c0,.15-.07.28-.08.39a2,2,0,0,0,0,.34,16.91,16.91,0,0,1-.2,2.41q-.2,1.34-.34,2.69a15.28,15.28,0,0,0-.06,2.6,3.94,3.94,0,0,0,.76,2.16,2.34,2.34,0,0,0,1.12.84.89.89,0,0,0,.73.06,4.42,4.42,0,0,0,1.46-.73l1-.67.92-.67a6.74,6.74,0,0,0,.73-.73l1-1.32a9.68,9.68,0,0,0,.87-1.43l.2-.31a1.32,1.32,0,0,1,.2-.25,10.42,10.42,0,0,0,1.18-1.68q.5-.9,1.06-1.74a2.49,2.49,0,0,0,.28-.5,8.77,8.77,0,0,1,.64-1.26q.36-.59.81-1.2A.68.68,0,0,1,171.09,47.66Zm-6.83-6.44a2.68,2.68,0,0,1-.56-1,.33.33,0,0,0-.17-.28,3.35,3.35,0,0,0-.92-.67,1.77,1.77,0,0,0-1.09-.11,1.49,1.49,0,0,0-1.29,1q-.17.45-.36.92a3.63,3.63,0,0,0-.25,1,.91.91,0,0,1-.17.56,2.78,2.78,0,0,0-.28,1,7.31,7.31,0,0,1-.17,1q-.06.39-.11.73a4.51,4.51,0,0,1-.17.67,4.8,4.8,0,0,0-.17.48.74.74,0,0,0,.06.48,8.27,8.27,0,0,0,2.63-.73,3.39,3.39,0,0,0,1.34-1.12,11.16,11.16,0,0,0,.7-1l.64-1.06q.17-.28.06-.45a1.53,1.53,0,0,1,.11-.78,1,1,0,0,0,.08-.28A1,1,0,0,1,164.26,41.22Z"/><path class="cls-1" d="M187.28,47.49a5.51,5.51,0,0,0-.06.78,2.83,2.83,0,0,1-.11.78,7.82,7.82,0,0,1-.34,1.37,8.36,8.36,0,0,1-.56,1.26q-.5,1.06-1,2.13t-1,2.13a14.25,14.25,0,0,1-1,1.71,14.14,14.14,0,0,0-1,1.71q-.79,1.46-1.46,2.86A18.94,18.94,0,0,1,179.16,65q-.17.28-.34.59a4.19,4.19,0,0,1-.39.59l-.73.84a7.91,7.91,0,0,1-.78.78,7.31,7.31,0,0,1-1.54,1,5.54,5.54,0,0,1-1.77.5,2.07,2.07,0,0,1-1.08-.22,4.54,4.54,0,0,1-1.87-1.79,14.77,14.77,0,0,1-1-2.52,15.42,15.42,0,0,1-.42-2q-.14-1-.31-2-.11-.73-.23-1.4T168.52,58a30.07,30.07,0,0,1-.06-4.09q.11-2,.22-4.09.11-1.62.2-3.25a15.08,15.08,0,0,1,.54-3.25q.4-1.74.82-3.42a23.11,23.11,0,0,0,.59-3.47,12.71,12.71,0,0,1,.76-3.25q.59-1.57,1.16-3.19.51-1.46,1-2.94T175,24.14q.56-1.18,1.2-2.35a5.72,5.72,0,0,1,1.76-2A20.74,20.74,0,0,1,181.09,18a9.75,9.75,0,0,1,3.5-.81,1,1,0,0,1,.53,0,1.66,1.66,0,0,0,.53.08,1.77,1.77,0,0,1,1.68.67.53.53,0,0,0,.2.14l.2.08a1.37,1.37,0,0,1,.28.17,1.94,1.94,0,0,0,.39.78,2,2,0,0,1,.39.84,8.12,8.12,0,0,0,.28.9,8.37,8.37,0,0,1,.28.9,8.7,8.7,0,0,1,0,3.11,20.27,20.27,0,0,1-.78,3q-.45,1.46-1,2.83a19.09,19.09,0,0,1-1.32,2.72,5.34,5.34,0,0,0-.45,1.06,5.38,5.38,0,0,1-.45,1.06,6.41,6.41,0,0,1-.67,1.15,10,10,0,0,0-.73,1.15q-.45.78-1,1.57T181.9,41a10.88,10.88,0,0,1-1.15,1.48,15.25,15.25,0,0,1-1.37,1.32,8.7,8.7,0,0,0-.73.7,8.62,8.62,0,0,1-.73.7q-.45.45-.92.84l-1,.78a5.1,5.1,0,0,1-.62.42,5.26,5.26,0,0,0-.62.42.8.8,0,0,0-.45.78q-.11,1-.2,1.9t-.2,1.9q-.11.78-.2,1.65a6.92,6.92,0,0,0,0,1.65,23.27,23.27,0,0,1,.28,3.58q0,1.79.11,3.58a4.41,4.41,0,0,0,.14.53c.06.17.12.35.2.53a4.72,4.72,0,0,0,1.79,2,.62.62,0,0,0,.28.06.38.38,0,0,0,.28-.11,7.7,7.7,0,0,1,.59-.53,2.68,2.68,0,0,0,.53-.59,12.6,12.6,0,0,0,.78-1.34q.34-.67.73-1.4,1.57-3,3-6l2.91-6,.25-.62q.14-.34.25-.67a1.16,1.16,0,0,1,.53-.64,2.72,2.72,0,0,0,.64-.48A.23.23,0,0,1,187.28,47.49ZM174.4,46.2a.23.23,0,0,1,.17.06,5.15,5.15,0,0,1,.56-.39,5,5,0,0,0,.56-.39,22.65,22.65,0,0,0,3.92-3.86q.84-1.12,1.65-2.3a18.09,18.09,0,0,0,1.43-2.46q.39-.78.78-1.54t.73-1.54q.39-.9.7-1.82t.59-1.88q.39-1.06.62-1.9a9.36,9.36,0,0,0,.17-1,9,9,0,0,1,.17-1,9.58,9.58,0,0,0,.14-1.29,5.89,5.89,0,0,0-.08-1.29q-.11-.45-.22-.84L186,21.9a1.79,1.79,0,0,0-.56-1.12.69.69,0,0,1-.22-.5.86.86,0,0,0-.22-.45,2.27,2.27,0,0,0-.34-.28,1.32,1.32,0,0,0-.36-.17,1.25,1.25,0,0,1-.36-.17.82.82,0,0,0-1.12.22,3.85,3.85,0,0,0-.45.5l-.76,1.18q-.36.56-.7,1.18A18.14,18.14,0,0,0,179.16,26q-.67,2-1.29,3.92-.39,1.29-.76,2.55t-.64,2.55a24.22,24.22,0,0,0-.42,2.58q-.14,1.29-.31,2.58-.11.56-.2,1.12t-.2,1.12a5.22,5.22,0,0,1-.31,1,5.63,5.63,0,0,0-.31.9,3.21,3.21,0,0,0-.2,1A5.1,5.1,0,0,1,174.4,46.2Z"/><path class="cls-1" d="M247.92,46.65a1.77,1.77,0,0,0-1-.28,3.89,3.89,0,0,1-1-.11,2.17,2.17,0,0,0-.62-.14,5.27,5.27,0,0,1-.62-.08c-.26,0-.51-.08-.76-.14a1.5,1.5,0,0,0-.76,0,.29.29,0,0,1-.25,0,.83.83,0,0,0-.31-.06c-.22-.07-.36-.19-.39-.34s.09-.47.28-.5l.9-.34a8.23,8.23,0,0,1,.9-.28,13,13,0,0,1,2.18-.25q1.06,0,2.18,0h.34q.22-.45.42-1a5.72,5.72,0,0,1,.48-1l.56-1.26.56-1.26q.17-.34.31-.67t.25-.67q.39-.67.76-1.37t.7-1.43l.67-1.46.67-1.46a7.8,7.8,0,0,1,.56-1.12l1-1.88,1-1.88q.39-.73.73-1.46a6.47,6.47,0,0,1,1.2-1.74q.76-.78,1.6-1.51a2.76,2.76,0,0,1,.39-.34,1.14,1.14,0,0,1,.62-.22,9.29,9.29,0,0,1,1-.06h1a2.54,2.54,0,0,1,.48-.06,1.72,1.72,0,0,0,.42-.06.6.6,0,0,1,.56.28,6.75,6.75,0,0,1,.78,3.36,5.21,5.21,0,0,0-.06,1.32q.06.64.06,1.32v1a.62.62,0,0,1,0,.2.25.25,0,0,0,0,.2,2.07,2.07,0,0,1,.08,1,5.74,5.74,0,0,0-.08,1,.7.7,0,0,1,0,.39l-.11.34v.84a5.56,5.56,0,0,0,.06.78,19.11,19.11,0,0,1,0,3.58,9.32,9.32,0,0,0-.11,1.43q0,.7-.06,1.43-.06,1.12-.11,2.18t-.17,2.18a4,4,0,0,1-.08.84q-.08.39-.2.84a2.65,2.65,0,0,1-.06.62,5.36,5.36,0,0,0,1.76-.28,3.56,3.56,0,0,1,1.65-.17,3.75,3.75,0,0,1,.28.67.93.93,0,0,1-1,.67.86.86,0,0,0-.34.11l-.64.34a3.93,3.93,0,0,1-.64.28,1,1,0,0,1-.39.06.9.9,0,0,0-1.18.73,26.58,26.58,0,0,0-.67,3.36q-.28,1.51-.48,3t-.42,3q-.11,1.12-.28,2.27t-.28,2.27a1.71,1.71,0,0,0,0,.62,3.8,3.8,0,0,1,.06.62q.05,1,.11,1.85a15.34,15.34,0,0,1,0,1.85,3.72,3.72,0,0,0,1.57,3q.84.62,1.34-.11l.42-.53a5.37,5.37,0,0,0,.36-.53q.78-1.23,1.54-2.46a27.74,27.74,0,0,0,1.37-2.52.23.23,0,0,1,.06-.17.23.23,0,0,0,.06-.17,3.5,3.5,0,0,1,.45-1.18,11.58,11.58,0,0,0,.62-1.18,10.58,10.58,0,0,1,.73-1.32,10.66,10.66,0,0,0,.73-1.32c.11-.22.21-.45.31-.67s.2-.45.31-.67.33-.71.64-1.34.68-1.34,1.09-2.13.83-1.6,1.26-2.44.83-1.6,1.2-2.3l.92-1.71a2.58,2.58,0,0,1,.42-.67q.62-.78,1-.67a.58.58,0,0,1,.45.5,6.38,6.38,0,0,0-.39.78q-.34.73-.87,1.79T276.93,53q-.62,1.29-1.2,2.44t-1,2q-.42.9-.59,1.18-.28.56-.5,1.09a11,11,0,0,1-.5,1l-.34.67a6,6,0,0,0-.48.78q-.2.39-.48.84-.39.62-.76,1.29t-.76,1.34q-.22.39-.42.78a3.8,3.8,0,0,1-.48.73q-.5.78-.92,1.6t-.87,1.6c-.3.48-.59,1-.87,1.46a10.17,10.17,0,0,1-.92,1.34,8.35,8.35,0,0,1-1.74,1.68,1.29,1.29,0,0,1-.76.31,2.37,2.37,0,0,1-.81-.08,4,4,0,0,1-2.63-1.51,8.32,8.32,0,0,1-1.23-2,13.85,13.85,0,0,1-.73-2.16,18.78,18.78,0,0,1-.73-4.26,40.17,40.17,0,0,1,0-4.26q.11-1.79.31-3.56t.48-3.56q.11-1.06.2-2.07t.2-2.07v-.5l-2.18-.56-2.13-.56-2.1-.67a10.35,10.35,0,0,0-2.16-.45c-.11.19-.22.36-.34.53a2.91,2.91,0,0,0-.28.53,8.05,8.05,0,0,0-.39.92c-.11.32-.24.64-.39,1l-.34.5a.89.89,0,0,1-.17.22,6.07,6.07,0,0,1-.42,1.12c-.17.34-.33.69-.48,1.06A.16.16,0,0,0,247,53a.16.16,0,0,1-.06.11,2.36,2.36,0,0,0-.62,1,3.86,3.86,0,0,1-.56,1.15s-.06.07-.06.08,0,0-.06.08l-.56,1.2q-.28.59-.56,1.2a8,8,0,0,1-1,1.71q-.56.76-1.06,1.54a11.25,11.25,0,0,1-2.13,2.46,12.08,12.08,0,0,1-1.29,1.12,1.62,1.62,0,0,1-1.85.17,7.61,7.61,0,0,0-.84-.36q-.39-.14-.78-.31a3.4,3.4,0,0,1-2.18-2.63,9.4,9.4,0,0,1-.2-2.6,17.61,17.61,0,0,1,.36-2.6,7,7,0,0,1,.48-1.46,9.67,9.67,0,0,1,.76-1.34,10,10,0,0,0,1-1.62,1.91,1.91,0,0,1,1.06-.9,10.21,10.21,0,0,1,1-.28,3.38,3.38,0,0,1,1.06-.06,1.43,1.43,0,0,1,.14.59,1.34,1.34,0,0,1-.36.48l-.34.5-.5.81q-.22.36-.45.76l-.34.5q-.28.84-.53,1.65t-.53,1.6a1.93,1.93,0,0,0-.06.78q.05.62.11,1.18t.17,1.18a2.42,2.42,0,0,0,.92,1.54,2.25,2.25,0,0,0,1.71.48,2.46,2.46,0,0,0,.78-.34A11.46,11.46,0,0,0,240.92,61a20.59,20.59,0,0,0,2-3.28q.84-1.71,1.62-3.5c.11-.22.23-.45.36-.67a3.64,3.64,0,0,0,.31-.67l1.09-2.41q.53-1.18,1-2.41.17-.34.31-.7T247.92,46.65ZM261.7,25.09a2.16,2.16,0,0,0-.62.22.85.85,0,0,0-.28.34q-.22.39-.42.78a6,6,0,0,1-.48.78q-.34.67-.7,1.34t-.76,1.34a13,13,0,0,0-.81,1.4,13.56,13.56,0,0,0-.64,1.51q-.34.84-.78,1.74-.34.62-.73,1.2t-.73,1.2q-.5,1-1,1.9t-.92,1.9l-.76,1.4q-.36.67-.7,1.4c-.08.15-.14.29-.2.42s-.12.27-.2.42l3.86,1.09q1.9.53,3.86,1a.38.38,0,0,1,.11-.28q.11-.78.2-1.48t.2-1.43q.28-1.85.45-3.7t.39-3.7l.22-1.79.22-1.79q.22-1.23.42-2.41t.42-2.41q.11-.62.17-1.23T261.7,25.09Z"/><path class="cls-1" d="M309.75,47.1a1.18,1.18,0,0,1,0,.42,1.51,1.51,0,0,0,0,.31q.11.17,0,.28-.28.45-.53,1l-.48,1a6,6,0,0,0-.62,1.43,7.5,7.5,0,0,1-.56,1.43q-.67,1.46-1.43,2.86t-1.48,2.8a35.49,35.49,0,0,1-2.52,4.09A15.37,15.37,0,0,1,298.77,66q-1.23.84-2.74,1.74a2,2,0,0,1-1,.31A4.4,4.4,0,0,1,294,68a1.37,1.37,0,0,0-.45-.14l-.45-.08a5.11,5.11,0,0,1-4.2-3.47,6.13,6.13,0,0,1-.42-1.68q-.08-.84-.2-1.68a3,3,0,0,0,0-.42c0-.13,0-.29-.08-.48l-.34.22a1.3,1.3,0,0,0-.28.17l-.11.11a1.77,1.77,0,0,0-.5.67,3.35,3.35,0,0,1-1.62,1.29,4.77,4.77,0,0,1-2,.25,7.55,7.55,0,0,1-2.07-.48,5.93,5.93,0,0,1-1.76-1q-.5-.45-1-1a7.91,7.91,0,0,1-.9-1.06A8.62,8.62,0,0,1,276.32,56a12.22,12.22,0,0,1-.06-3.5,15.39,15.39,0,0,1,1.34-4.7,12.7,12.7,0,0,1,2.86-4,11.71,11.71,0,0,1,1.12-1,7.87,7.87,0,0,1,1.29-.81,3.72,3.72,0,0,1,1-.39,9.34,9.34,0,0,0,1-.28,4.44,4.44,0,0,0,1-.45,4.44,4.44,0,0,1,1-.45,5,5,0,0,1,1.29-.28q.67-.06,1.34-.06a2.08,2.08,0,0,0,.5-.06l.17-.5q.39-1.79.73-3.7a24.44,24.44,0,0,1,1-3.7l.78-2.27q.39-1.15.78-2.27a10.81,10.81,0,0,1,.5-1.18,4.76,4.76,0,0,1,.67-1,3.13,3.13,0,0,1,1.26-.87,4.35,4.35,0,0,1,1.48-.25h.78a1.71,1.71,0,0,0,.42.06.42.42,0,0,1,.31.11l1,.76a5.41,5.41,0,0,1,.9.81,9.15,9.15,0,0,1,1.48,2.1,4.66,4.66,0,0,1,.48,2.55,2.86,2.86,0,0,0,.06.56,2.88,2.88,0,0,1,.06.56,18.16,18.16,0,0,1-.45,3.5q-.39,1.71-.9,3.39a24.71,24.71,0,0,1-1.09,2.88q-.64,1.43-1.32,2.77a7.45,7.45,0,0,1-.45.78,4.49,4.49,0,0,0-.39.73q-.22.39-.42.78t-.42.78q-.5.84-1,1.65l-1,1.65a.69.69,0,0,0-.17.28.72.72,0,0,1-.17.28,7.46,7.46,0,0,0-.5.67q-.23.34-.45.73a7.06,7.06,0,0,0-.45,1,26.87,26.87,0,0,0-.5,2.88q-.17,1.43-.22,2.88a17.4,17.4,0,0,0,0,2.8,4.27,4.27,0,0,0,1.85,3.19,3.43,3.43,0,0,0,1.12.42,1.49,1.49,0,0,0,1.12-.14,11.87,11.87,0,0,0,2.52-2.07q1-1.12,2.13-2.46a19.57,19.57,0,0,0,2.27-3.47q1-1.9,1.82-3.7a8.75,8.75,0,0,1,.73-1.46,8.86,8.86,0,0,0,.73-1.46q.28-.5.56-1.12a11.43,11.43,0,0,0,.45-1.12,3.79,3.79,0,0,1,.59-1.15A2.55,2.55,0,0,1,309.75,47.1ZM283.37,58.41a2.59,2.59,0,0,0,1.37.31,2,2,0,0,0,1.43-.36l.84-.73q.39-.34.84-.67a1.06,1.06,0,0,0,.39-.84q0-.67,0-1.34t.08-1.34c0-.63.08-1.28.14-1.93s.1-1.3.14-1.93q.11-1.57.28-3.08t.45-3q.11-.5.2-1l.2-1.09a2.39,2.39,0,0,1-.45.06.38.38,0,0,0-.28.11c-.3.19-.59.38-.87.59s-.57.4-.87.59a19.71,19.71,0,0,0-3.75,3.3,8.88,8.88,0,0,0-2.13,4.31q-.17,1-.31,2a9.77,9.77,0,0,0-.08,2,5.79,5.79,0,0,0,.42,1.88,4.52,4.52,0,0,0,1.15,1.62,3.69,3.69,0,0,1,.39.34A1.47,1.47,0,0,0,283.37,58.41Zm11.2-10.58a.12.12,0,0,1,.08,0s.06,0,.14,0a1.68,1.68,0,0,1,.11-.2l.11-.2q.28-.56.59-1.09t.59-1.09q.5-1.06,1-2.07t1-2.07a14.49,14.49,0,0,0,.64-1.76q.25-.87.53-1.76a21.48,21.48,0,0,0,.87-3.84,16.46,16.46,0,0,0,0-3.95,4.58,4.58,0,0,0-.17-.67l-.22-.67a10.12,10.12,0,0,0-.67-1.79,3,3,0,0,0-.28-.45.59.59,0,0,0-.5-.22.32.32,0,0,1-.22.06.74.74,0,0,0-.36.11,1.17,1.17,0,0,0-.39.48,2.81,2.81,0,0,0-.25,1.09,7.21,7.21,0,0,0-.2,1.09q-.14,1-.36,2.41t-.48,3.08q-.25,1.65-.45,3.05l-.34,2.38q-.14,1-.14,1-.11.62-.22,1.18t-.22,1.18c-.08.26-.14.52-.2.78s-.1.54-.14.84-.08.56-.14.9a9.34,9.34,0,0,0-.11,1,2.71,2.71,0,0,0,.06.81Q294.29,47.83,294.57,47.83Z"/><path class="cls-1" d="M311.65,64.4a10,10,0,0,0,.06-1.06,4.86,4.86,0,0,1,.11-1.06q.11-.67.17-1.32t.17-1.32c0-.19.06-.34.08-.48a3.15,3.15,0,0,0,0-.42,9.88,9.88,0,0,1,.36-1.71q.25-.81.48-1.6a7.85,7.85,0,0,0,.25-.92c.06-.28.12-.57.2-.87a1.07,1.07,0,0,0,.06-.34,1.51,1.51,0,0,0-1-1.68q-.5-.28-1.06-.53t-1.06-.53q-.56-.39-1.09-.7a6.28,6.28,0,0,1-1-.76,8.09,8.09,0,0,1-1.48-1.4,4.8,4.8,0,0,1-.92-1.85c0-.19-.07-.36-.08-.53a3.63,3.63,0,0,0-.08-.48A11.27,11.27,0,0,1,306,41.5a6.9,6.9,0,0,1,.31-.92q.2-.48.42-.92a1.36,1.36,0,0,0,.17-.34,1.45,1.45,0,0,1,.17-.34,3.61,3.61,0,0,0,.28-.67,1.43,1.43,0,0,1,.34-.56,5.68,5.68,0,0,0,.45-.5,1.34,1.34,0,0,0,.34-.45,2.57,2.57,0,0,1,.78-.56,3.86,3.86,0,0,1,1.85,0,8.15,8.15,0,0,1,.81.14l.76.2a1.57,1.57,0,0,1,.73.39,1.2,1.2,0,0,0,.25.28l.25.22a1.73,1.73,0,0,1,.56.62,1.39,1.39,0,0,1,.11.73,2.61,2.61,0,0,0,.06.62.53.53,0,0,1,0,.34l-.11.34c0,.15-.07.27-.08.36a1.51,1.51,0,0,0,0,.31,2.58,2.58,0,0,1-.22.78,4.77,4.77,0,0,1-.25.53,4.55,4.55,0,0,0-.25.53,3.89,3.89,0,0,1-.28.56,5,5,0,0,1-.39.56,5.24,5.24,0,0,1-1.57,1.79l-.39.39a.31.31,0,0,0-.06.45,13.12,13.12,0,0,0,1,1.26,3.57,3.57,0,0,0,1.23.92q.56.28,1,.48a9.62,9.62,0,0,1,1,.48,7.47,7.47,0,0,1,1.74,1l.56.45a1.66,1.66,0,0,1,.45.56q.17.28.31.56a.86.86,0,0,1,.08.56c-.08,0-.09.08-.06.11a.23.23,0,0,1,.06.17,2.92,2.92,0,0,1,.11.81,3.55,3.55,0,0,1-.11.87v.06a.89.89,0,0,1-.08.73,1.42,1.42,0,0,0-.2.73,2.58,2.58,0,0,1-.2.5q-.14.28-.25.56t-.11.59a3.05,3.05,0,0,1-.17.59q-.11.67-.25,1.32t-.25,1.26a5.74,5.74,0,0,0-.25,1.48q0,.76-.08,1.48,0,.34,0,.67t0,.67a5.66,5.66,0,0,0,.14.7c.06.2.12.42.2.64q.11.62.17,1.09a2.65,2.65,0,0,0,.34,1,4.13,4.13,0,0,0,.78,1.06.92.92,0,0,0,1.12.22,1.81,1.81,0,0,0,.45-.36q.17-.2.39-.42a1.23,1.23,0,0,0,.22-.39l.45-.78a8.67,8.67,0,0,1,.5-.78.85.85,0,0,1,.11-.34q.34-.62.64-1.29l.59-1.29a.46.46,0,0,0,.06-.2.44.44,0,0,1,.06-.2c.15-.41.3-.81.45-1.2s.32-.79.5-1.2a3.49,3.49,0,0,1,.31-.81,3.38,3.38,0,0,0,.31-.87c.07-.22.15-.43.22-.62s.15-.39.22-.62q.17-.62.36-1.18l.42-1.18c.07-.3.14-.62.2-1s.12-.65.2-1,.14-.36.2-.53a4.41,4.41,0,0,0,.14-.53,3.57,3.57,0,0,0,.17-.53,3.31,3.31,0,0,1,.17-.53q.28-.78.56-1.48t.56-1.32a6.29,6.29,0,0,1,.73-1.23.38.38,0,0,1,.39-.14.5.5,0,0,1,.39.2l.06.11a1.08,1.08,0,0,0-.08.53,4.37,4.37,0,0,1,0,.48v.31a.42.42,0,0,1-.11.31.63.63,0,0,0-.06.28,2.76,2.76,0,0,1-.11.81q-.11.36-.22.76a5.75,5.75,0,0,1-.39.84q-.28.84-.59,1.62t-.53,1.57a11.07,11.07,0,0,1-.39,1.2q-.34.92-.78,2.1l-.9,2.35q-.45,1.18-.73,1.85a6.58,6.58,0,0,0-.36.87q-.14.42-.31.81a1.91,1.91,0,0,1-.39.78,10.24,10.24,0,0,0-.5,1q-.23.53-.5,1.09l-.11.31a1.81,1.81,0,0,1-.17.31,1,1,0,0,0-.08.22.51.51,0,0,1-.14.22,1.82,1.82,0,0,1-.36.45,2.42,2.42,0,0,0-.36.39,2.79,2.79,0,0,0-.48.48,3,3,0,0,1-.48.48l-.28.17a.83.83,0,0,0-.22.17,6.5,6.5,0,0,1-.84.34.86.86,0,0,1-.62.28.44.44,0,0,1-.17.06s-.09,0-.17.11a1,1,0,0,1-1.23.28,2.11,2.11,0,0,1-.84-.17,1.55,1.55,0,0,1-.64-.14l-.59-.25a4.78,4.78,0,0,1-2.35-3.14q-.11-.62-.17-1.23a11.15,11.15,0,0,0-.17-1.18q-.06-.45-.08-.81T311.65,64.4Zm-1.06-19.26a3.63,3.63,0,0,0,1.06-1.06l.22-.45a.85.85,0,0,1,.28-.34,2.79,2.79,0,0,0,.36-.59c.09-.2.2-.42.31-.64a1.57,1.57,0,0,0,.22-.78q.06-.56.14-1.15t.2-1.2a1.28,1.28,0,0,0-.06-.39,2.73,2.73,0,0,0-1.18-1.06H312c-.11,0-.17,0-.17.11a.43.43,0,0,1-.14.31,1,1,0,0,0-.2.25,1.27,1.27,0,0,0-.28.73.75.75,0,0,1-.17.45,3.42,3.42,0,0,0-.42,1,8.61,8.61,0,0,0-.2,1.15.2.2,0,0,0,0,.17.39.39,0,0,1,0,.17V43a4.05,4.05,0,0,1-.06.64,5.05,5.05,0,0,0,.06.73A5.74,5.74,0,0,0,310.59,45.14Z"/><path class="cls-1" d="M340.43,47.77a1,1,0,0,1,.34.67,2.13,2.13,0,0,0-.14.48,2.16,2.16,0,0,1-.08.36,3.32,3.32,0,0,0-.39.84,5,5,0,0,1-.34.84,3.92,3.92,0,0,1-.28.56.87.87,0,0,0-.31.39l-.2.5a.48.48,0,0,0-.14.25.91.91,0,0,1-.14.31,4,4,0,0,1-.22.48,1.55,1.55,0,0,0-.17.48l-.14.28-.14.28q-.28.62-.53,1.23a9.55,9.55,0,0,0-.42,1.29l-.11.06c-.15.22-.28.44-.39.64a4.08,4.08,0,0,1-.45.64,2.55,2.55,0,0,1-.81.87q-.53.36-1,.76a3,3,0,0,1-.62.48,3.51,3.51,0,0,1-.67.31.32.32,0,0,0-.22.11,3.75,3.75,0,0,1-.76.14,2.21,2.21,0,0,0-.64.14,1.33,1.33,0,0,1-.9-.06q-.45-.17-.87-.28a5.82,5.82,0,0,1-.81-.28,3.11,3.11,0,0,1-1-.7,4.12,4.12,0,0,1-.67-1,4.45,4.45,0,0,1-.36-1.2q-.08-.59-.2-1.2a5.45,5.45,0,0,1-.08-1.23q0-.62,0-1.23a11.41,11.41,0,0,1,0-1.37q0-.7,0-1.43a39.42,39.42,0,0,1,.17-4.65,9,9,0,0,0,.14-1.18,9.21,9.21,0,0,1,.14-1.18q.06-.62.14-1.15t.2-1.15l.34-1q.17-.47.34-1c0-.15.17-.22.39-.22a3.88,3.88,0,0,0,.64.06,1.13,1.13,0,0,1,.59.17,1.16,1.16,0,0,1,.56.45,2.41,2.41,0,0,0,.22.45,2.55,2.55,0,0,1,.22.45l.11.25a.69.69,0,0,1,.06.25,5.39,5.39,0,0,1,.06.76,2.72,2.72,0,0,0,.11.76,6.75,6.75,0,0,1,.06,1.48q-.06.7-.06,1.43a2.48,2.48,0,0,1-.06,1.18.68.68,0,0,0,0,.34,2.06,2.06,0,0,1,0,.34,6.47,6.47,0,0,1,.06.78,3.31,3.31,0,0,1-.11.78,4.48,4.48,0,0,0-.11,1c0,.32,0,.68-.06,1.09v.73l-.11.11a2.37,2.37,0,0,1,0,1q-.08.45-.14.9a.26.26,0,0,1,0,.2.44.44,0,0,0,0,.14,1.45,1.45,0,0,1,.11.53v.48c0,.19-.07.36-.08.53a1.68,1.68,0,0,0,0,.53,6.09,6.09,0,0,1,.11,1.62,2.81,2.81,0,0,0,.39,1.23c0,.08.13.11.28.11a1.94,1.94,0,0,0,.56-.06,1.65,1.65,0,0,0,.59-.34l.53-.45.34-.34a1.55,1.55,0,0,0,.28-.39q.67-.78,1.29-1.6A14.78,14.78,0,0,0,336,54.83a3.85,3.85,0,0,1,.39-.78,3.89,3.89,0,0,0,.39-.78,6,6,0,0,0,.48-.78q.19-.39.42-.9l.53-1.15a10.75,10.75,0,0,0,.48-1.2.92.92,0,0,1,.17-.36,1.72,1.72,0,0,0,.22-.42A1.8,1.8,0,0,1,340.43,47.77Zm-13-13.66.31-.11a1,1,0,0,1,.36-.06c.11-.07.19-.07.22,0a.88.88,0,0,0,.39,0l.45,0a1.38,1.38,0,0,1,1.51.62q-.11.5-.2,1a6.56,6.56,0,0,1-.25,1,5.61,5.61,0,0,0-.5.56.16.16,0,0,0-.11.06H329a.85.85,0,0,1-.62-.28,2.47,2.47,0,0,1-.56-.73,1.6,1.6,0,0,1-.39-1.18.94.94,0,0,0,0-.45A.89.89,0,0,1,327.44,34.11Z"/><path class="cls-2" d="M210.46,61.39a8.12,8.12,0,0,1-1.68.17,2.07,2.07,0,0,1-1.68-3.25,7.11,7.11,0,0,1,4.82-3.75,42.2,42.2,0,0,1,5.94-.9,15,15,0,0,0,9.69-3.92l.45-.34c.56-.39,1.12-1.4,1.9-.56.67.67.11,1.51-.28,2.13A10.91,10.91,0,0,1,225,54.72c-1,.45-2.07.84-3.08,1.29,0,.22-.06.39.06.5,1.9,2.35,1.79,4.82.56,7.39a14.36,14.36,0,0,1-11.59,8.62,18.07,18.07,0,0,1-8.29-.5,10.62,10.62,0,0,1-5.43-3.47,46.71,46.71,0,0,1-3.36-4.65c-1.74-3-1.68-6.33-1.06-9.69.84-5,3.58-9,7.28-12.38a26,26,0,0,1,11.37-6.16,4.3,4.3,0,0,0,.84-.34,19.56,19.56,0,0,0-.84-1.9,6.32,6.32,0,0,1-.22-5,11.46,11.46,0,0,1,7.11-7.5,16,16,0,0,1,8-1c3.14.45,5.77,4.31,4.76,7.45s-2.69,5.6-5.77,7a3.51,3.51,0,0,1-3.47-.11c.73-.5,1.23-.9,1.79-1.23a10,10,0,0,0,4.7-6.33,4.31,4.31,0,0,0-4.7-5.49c-5.26.73-7.56,4.14-8.23,8.23a6.63,6.63,0,0,0,.84,3.47c.62,1.29,1.68,2.41,2.41,3.64a2.69,2.69,0,0,1,.5,1.68c-.17.78-1,1-1.68.84a6.15,6.15,0,0,1-2-.62,9.28,9.28,0,0,1-1.18-.9c-8.74,1.57-15.74,9.74-15.85,18.42-.11,5.26,2.52,9.13,6.5,12.15a5.92,5.92,0,0,0,6,.67c3.64-1.46,5.77-4.37,7.11-7.9a2.89,2.89,0,0,0-.78-3.36,3.12,3.12,0,0,0-3.42-.62c-1.57.62-3,1.51-3,3.53A2.57,2.57,0,0,1,210.46,61.39Z"/></svg>