<svg id="Layer_1" data-name="Layer 1" xmlns="http://www.w3.org/2000/svg" viewBox="0 0 1157 95"><defs><style>.cls-1{fill:#648c99;}.cls-2,.cls-4,.cls-5,.cls-6,.cls-7{fill:none;stroke:#648c99;}.cls-2,.cls-4,.cls-6,.cls-7{stroke-miterlimit:10;}.cls-2{stroke-width:2px;}.cls-3{fill:#fff;}.cls-5{stroke-linejoin:round;}.cls-6{stroke-width:0.75px;}.cls-7{stroke-width:0.5px;stroke-dasharray:6;}</style></defs><title>ringsandleaves</title><path class="cls-1" d="M535.73,24.16S533.09,35,520,36.25C520,36.25,520.7,24.27,535.73,24.16Z"/><path class="cls-1" d="M520.91,36.08s-1.41,11.09-14.28,13.78C506.63,49.87,506,37.88,520.91,36.08Z"/><path class="cls-1" d="M526.29,40.16s8.23,7.57,3,19.63C529.26,59.79,519.12,53.38,526.29,40.16Z"/><path class="cls-1" d="M505.7,22.65s11.17.45,15,13C520.66,35.69,508.77,37.36,505.7,22.65Z"/><path class="cls-1" d="M646.26,87.08s-9.82-5.35-7.64-18.32C638.62,68.76,650,72.52,646.26,87.08Z"/><path class="cls-1" d="M658.43,67.24S650.36,75,638.66,69C638.66,69,645.69,59.25,658.43,67.24Z"/><circle class="cls-2" cx="573.74" cy="56.45" r="19.73" transform="translate(49.34 295.96) rotate(-30.17)"/><path class="cls-3" d="M614.86,62.86a22.37,22.37,0,1,0-30.59-8.1A22.37,22.37,0,0,0,614.86,62.86Zm-26-10.74a17.12,17.12,0,1,1,23.4,6.19A17.12,17.12,0,0,1,588.82,52.12Z"/><circle class="cls-4" cx="603.62" cy="43.52" r="20.15" transform="translate(59.88 309.22) rotate(-30.17)"/><polygon class="cls-5" points="619.53 20.29 614.3 17.64 609.06 19.24 612.33 28.56 612.33 28.56 621.33 25.46 619.53 20.29"/><path class="cls-6" d="M520,35s-1.69,5.5,22,11"/><path class="cls-6" d="M639.13,69.23s-24.87-3.78-16,19"/><line class="cls-7" y1="50" x2="491.5" y2="50"/><line class="cls-7" x1="638.5" y1="50.5" x2="1157" y2="50.5"/></svg>