<svg id="Layer_1" data-name="Layer 1" xmlns="http://www.w3.org/2000/svg" viewBox="0 0 826 135"><defs><style>.cls-1,.cls-2,.cls-4,.cls-5{fill:none;stroke:#648c99;}.cls-1,.cls-2,.cls-4{stroke-miterlimit:10;}.cls-1,.cls-2{stroke-width:2px;}.cls-2{stroke-dasharray:11.62 11.62;}.cls-3{fill:#fff;}.cls-5{stroke-linejoin:round;}</style></defs><title>rings</title><line class="cls-1" y1="64" x2="6" y2="64"/><line class="cls-2" x1="17.62" y1="64" x2="337.19" y2="64"/><line class="cls-1" x1="343" y1="64" x2="349" y2="64"/><line class="cls-1" x1="477" y1="64" x2="483" y2="64"/><line class="cls-2" x1="494.62" y1="64" x2="814.19" y2="64"/><line class="cls-1" x1="820" y1="64" x2="826" y2="64"/><circle class="cls-1" cx="393.05" cy="75.61" r="24.21" transform="translate(15.24 207.75) rotate(-30.17)"/><path class="cls-3" d="M443.5,83.47A27.44,27.44,0,1,0,406,73.54,27.43,27.43,0,0,0,443.5,83.47ZM411.55,70.3a21,21,0,1,1,28.71,7.6A21,21,0,0,1,411.55,70.3Z"/><circle class="cls-4" cx="429.71" cy="59.75" r="24.71" transform="translate(28.17 224.03) rotate(-30.17)"/><polygon class="cls-5" points="449.22 31.25 442.81 28 436.38 29.96 440.39 41.4 440.39 41.4 451.43 37.6 449.22 31.25"/></svg>